<svg xmlns="http://www.w3.org/2000/svg" width="894" height="934" fill="none" viewBox="0 0 894 934">
  <g filter="url(#filter0_iiii)">
    <path fill="#484C9A" d="M632.786 158.51c32.277 38.95-27.455 121.028-7.038 170.142 26.713 64.261 122.232 65.745 134.878 137.388 12.835 72.715-26.101 157.329-71.333 222.618-48.922 70.615-115.381 133.505-188.932 153.055-72.687 19.32-143.943-7.791-200.195-49.627-49.844-37.071-61.013-111.578-93.162-168.554-31.081-55.082-92.869-90.831-92.68-160.803.19-70.091 44.395-141.978 93.642-194.021 43.556-46.03 103.371-51.69 157.924-71.832 41.683-15.391 81.687-26.169 123.943-32.243 48.972-7.039 112.163-43.279 142.953-6.123z"/>
  </g>
  <defs>
    <filter id="filter0_iiii" width="893.36" height="948.078" x=".337" y=".986" color-interpolation-filters="sRGB" filterUnits="userSpaceOnUse">
      <feFlood flood-opacity="0" result="BackgroundImageFix"/>
      <feBlend in="SourceGraphic" in2="BackgroundImageFix" result="shape"/>
      <feColorMatrix in="SourceAlpha" result="hardAlpha" values="0 0 0 0 0 0 0 0 0 0 0 0 0 0 0 0 0 0 127 0"/>
      <feOffset dy="16"/>
      <feGaussianBlur stdDeviation="16"/>
      <feComposite in2="hardAlpha" k2="-1" k3="1" operator="arithmetic"/>
      <feColorMatrix values="0 0 0 0 0 0 0 0 0 0 0 0 0 0 0 0 0 0 0.16 0"/>
      <feBlend in2="shape" result="effect1_innerShadow"/>
      <feColorMatrix in="SourceAlpha" result="hardAlpha" values="0 0 0 0 0 0 0 0 0 0 0 0 0 0 0 0 0 0 127 0"/>
      <feOffset dy="8"/>
      <feGaussianBlur stdDeviation="8"/>
      <feComposite in2="hardAlpha" k2="-1" k3="1" operator="arithmetic"/>
      <feColorMatrix values="0 0 0 0 0 0 0 0 0 0 0 0 0 0 0 0 0 0 0.12 0"/>
      <feBlend in2="effect1_innerShadow" result="effect2_innerShadow"/>
      <feColorMatrix in="SourceAlpha" result="hardAlpha" values="0 0 0 0 0 0 0 0 0 0 0 0 0 0 0 0 0 0 127 0"/>
      <feOffset dy="4"/>
      <feGaussianBlur stdDeviation="4"/>
      <feComposite in2="hardAlpha" k2="-1" k3="1" operator="arithmetic"/>
      <feColorMatrix values="0 0 0 0 0 0 0 0 0 0 0 0 0 0 0 0 0 0 0.12 0"/>
      <feBlend in2="effect2_innerShadow" result="effect3_innerShadow"/>
      <feColorMatrix in="SourceAlpha" result="hardAlpha" values="0 0 0 0 0 0 0 0 0 0 0 0 0 0 0 0 0 0 127 0"/>
      <feOffset dy="2"/>
      <feGaussianBlur stdDeviation="2"/>
      <feComposite in2="hardAlpha" k2="-1" k3="1" operator="arithmetic"/>
      <feColorMatrix values="0 0 0 0 0 0 0 0 0 0 0 0 0 0 0 0 0 0 0.12 0"/>
      <feBlend in2="effect3_innerShadow" result="effect4_innerShadow"/>
    </filter>
  </defs>
</svg>
