<svg xmlns="http://www.w3.org/2000/svg" width="695" height="308" fill="none" viewBox="0 0 695 308">
  <g filter="url(#filter0_iiii)">
    <path fill="#2AB1AD" d="M284.013-156.642c-43.451 18.924-17.048 74.907-53.109 101.327-47.181 34.567-135.907 23.4-172.684 64.1C20.892 50.09 27.203 104.95 46.099 149.193c20.437 47.853 59.774 93.357 120.846 114.171 60.353 20.568 135.651 13.547 202.253-4.058 59.016-15.601 95.433-58.176 145.082-87.757 47.999-28.599 117.582-41.912 141.92-83.242 24.381-41.401 8.745-89.41-18.497-126.341-24.096-32.664-77.349-43.546-120.668-62.314-33.1-14.341-66.265-25.746-103.158-34.659-42.757-10.329-88.414-39.689-129.864-21.636z"/>
  </g>
  <defs>
    <filter id="filter0_iiii" width="693.672" height="532.931" x=".638" y="-209.564" color-interpolation-filters="sRGB" filterUnits="userSpaceOnUse">
      <feFlood flood-opacity="0" result="BackgroundImageFix"/>
      <feBlend in="SourceGraphic" in2="BackgroundImageFix" result="shape"/>
      <feColorMatrix in="SourceAlpha" result="hardAlpha" values="0 0 0 0 0 0 0 0 0 0 0 0 0 0 0 0 0 0 127 0"/>
      <feOffset dy="16"/>
      <feGaussianBlur stdDeviation="16"/>
      <feComposite in2="hardAlpha" k2="-1" k3="1" operator="arithmetic"/>
      <feColorMatrix values="0 0 0 0 0 0 0 0 0 0 0 0 0 0 0 0 0 0 0.16 0"/>
      <feBlend in2="shape" result="effect1_innerShadow"/>
      <feColorMatrix in="SourceAlpha" result="hardAlpha" values="0 0 0 0 0 0 0 0 0 0 0 0 0 0 0 0 0 0 127 0"/>
      <feOffset dy="8"/>
      <feGaussianBlur stdDeviation="8"/>
      <feComposite in2="hardAlpha" k2="-1" k3="1" operator="arithmetic"/>
      <feColorMatrix values="0 0 0 0 0 0 0 0 0 0 0 0 0 0 0 0 0 0 0.12 0"/>
      <feBlend in2="effect1_innerShadow" result="effect2_innerShadow"/>
      <feColorMatrix in="SourceAlpha" result="hardAlpha" values="0 0 0 0 0 0 0 0 0 0 0 0 0 0 0 0 0 0 127 0"/>
      <feOffset dy="4"/>
      <feGaussianBlur stdDeviation="4"/>
      <feComposite in2="hardAlpha" k2="-1" k3="1" operator="arithmetic"/>
      <feColorMatrix values="0 0 0 0 0 0 0 0 0 0 0 0 0 0 0 0 0 0 0.12 0"/>
      <feBlend in2="effect2_innerShadow" result="effect3_innerShadow"/>
      <feColorMatrix in="SourceAlpha" result="hardAlpha" values="0 0 0 0 0 0 0 0 0 0 0 0 0 0 0 0 0 0 127 0"/>
      <feOffset dy="2"/>
      <feGaussianBlur stdDeviation="2"/>
      <feComposite in2="hardAlpha" k2="-1" k3="1" operator="arithmetic"/>
      <feColorMatrix values="0 0 0 0 0 0 0 0 0 0 0 0 0 0 0 0 0 0 0.12 0"/>
      <feBlend in2="effect3_innerShadow" result="effect4_innerShadow"/>
    </filter>
  </defs>
</svg>
