<svg xmlns="http://www.w3.org/2000/svg" fill="none" viewBox="0 0 205 317">
  <g fill="#000" fill-rule="evenodd" clip-path="url(#clip0)" clip-rule="evenodd">
    <path d="M19 48.92c0-5.404 4.477-9.784 10-9.784s10 4.38 10 9.784c0 5.403-4.477 9.784-10 9.784 0 5.403-4.477 9.784-10 9.784s-10-4.38-10-9.784c0-5.404 4.477-9.784 10-9.784zM-21 9.784C-21 4.38-16.523 0-11 0S-1 4.38-1 9.784c0 5.404-4.477 9.784-10 9.784 0 5.404-4.477 9.784-10 9.784s-10-4.38-10-9.784c0-5.404 4.477-9.784 10-9.784zm10 7.827c4.418 0 8-3.505 8-7.827 0-4.323-3.582-7.827-8-7.827s-8 3.504-8 7.827c0 4.322 3.582 7.827 8 7.827zm40 39.136c4.418 0 8-3.505 8-7.827 0-4.323-3.582-7.827-8-7.827s-8 3.504-8 7.827c0 4.322 3.582 7.827 8 7.827zM101 48.92c0-5.404 4.477-9.784 10-9.784s10 4.38 10 9.784c0 5.403-4.477 9.784-10 9.784 0 5.403-4.477 9.784-10 9.784s-10-4.38-10-9.784c0-5.404 4.477-9.784 10-9.784zM61 9.784C61 4.38 65.477 0 71 0s10 4.38 10 9.784c0 5.404-4.477 9.784-10 9.784 0 5.404-4.477 9.784-10 9.784s-10-4.38-10-9.784c0-5.404 4.477-9.784 10-9.784zm10 7.827c4.418 0 8-3.505 8-7.827 0-4.323-3.582-7.827-8-7.827s-8 3.504-8 7.827c0 4.322 3.582 7.827 8 7.827zm40 39.136c4.418 0 8-3.505 8-7.827 0-4.323-3.582-7.827-8-7.827s-8 3.504-8 7.827c0 4.322 3.582 7.827 8 7.827zM183 48.92c0-5.404 4.477-9.784 10-9.784s10 4.38 10 9.784c0 5.403-4.477 9.784-10 9.784 0 5.403-4.477 9.784-10 9.784s-10-4.38-10-9.784c0-5.404 4.477-9.784 10-9.784zM143 9.784C143 4.38 147.477 0 153 0s10 4.38 10 9.784c0 5.404-4.477 9.784-10 9.784 0 5.404-4.477 9.784-10 9.784s-10-4.38-10-9.784c0-5.404 4.477-9.784 10-9.784zm10 7.827c4.418 0 8-3.505 8-7.827 0-4.323-3.582-7.827-8-7.827s-8 3.504-8 7.827c0 4.322 3.582 7.827 8 7.827zm40 39.136c4.418 0 8-3.505 8-7.827 0-4.323-3.582-7.827-8-7.827s-8 3.504-8 7.827c0 4.322 3.582 7.827 8 7.827zM19 129.148c0-5.403 4.477-9.784 10-9.784s10 4.381 10 9.784c0 5.404-4.477 9.784-10 9.784 0 5.404-4.477 9.784-10 9.784s-10-4.38-10-9.784c0-5.403 4.477-9.784 10-9.784zm-40-39.135c0-5.404 4.477-9.785 10-9.785s10 4.38 10 9.785c0 5.403-4.477 9.783-10 9.783 0 5.404-4.477 9.784-10 9.784s-10-4.38-10-9.784c0-5.403 4.477-9.784 10-9.784zm10 7.827c4.418 0 8-3.505 8-7.828 0-4.322-3.582-7.827-8-7.827s-8 3.505-8 7.828c0 4.322 3.582 7.827 8 7.827zm40 39.135c4.418 0 8-3.504 8-7.827 0-4.322-3.582-7.827-8-7.827s-8 3.505-8 7.827c0 4.323 3.582 7.827 8 7.827zM101 129.148c0-5.403 4.477-9.784 10-9.784s10 4.381 10 9.784c0 5.404-4.477 9.784-10 9.784 0 5.404-4.477 9.784-10 9.784s-10-4.38-10-9.784c0-5.403 4.477-9.784 10-9.784zM61 90.013c0-5.404 4.477-9.785 10-9.785s10 4.38 10 9.785c0 5.403-4.477 9.783-10 9.783 0 5.404-4.477 9.784-10 9.784s-10-4.38-10-9.784c0-5.403 4.477-9.784 10-9.784zm10 7.827c4.418 0 8-3.505 8-7.828 0-4.322-3.582-7.827-8-7.827s-8 3.505-8 7.828c0 4.322 3.582 7.827 8 7.827zm40 39.135c4.418 0 8-3.504 8-7.827 0-4.322-3.582-7.827-8-7.827s-8 3.505-8 7.827c0 4.323 3.582 7.827 8 7.827zM183 129.148c0-5.403 4.477-9.784 10-9.784s10 4.381 10 9.784c0 5.404-4.477 9.784-10 9.784 0 5.404-4.477 9.784-10 9.784s-10-4.38-10-9.784c0-5.403 4.477-9.784 10-9.784zm-40-39.135c0-5.404 4.477-9.785 10-9.785s10 4.38 10 9.785c0 5.403-4.477 9.783-10 9.783 0 5.404-4.477 9.784-10 9.784s-10-4.38-10-9.784c0-5.403 4.477-9.784 10-9.784zm10 7.827c4.418 0 8-3.505 8-7.828 0-4.322-3.582-7.827-8-7.827s-8 3.505-8 7.828c0 4.322 3.582 7.827 8 7.827zm40 39.135c4.418 0 8-3.504 8-7.827 0-4.322-3.582-7.827-8-7.827s-8 3.505-8 7.827c0 4.323 3.582 7.827 8 7.827zM19 209.377c0-5.404 4.477-9.784 10-9.784s10 4.38 10 9.784c0 5.403-4.477 9.783-10 9.783 0 5.404-4.477 9.784-10 9.784s-10-4.38-10-9.784c0-5.403 4.477-9.783 10-9.783zm-40-39.136c0-5.404 4.477-9.784 10-9.784s10 4.38 10 9.784c0 5.403-4.477 9.784-10 9.784 0 5.403-4.477 9.784-10 9.784s-10-4.381-10-9.784c0-5.404 4.477-9.784 10-9.784zm10 7.827c4.418 0 8-3.505 8-7.827 0-4.323-3.582-7.827-8-7.827s-8 3.504-8 7.827c0 4.322 3.582 7.827 8 7.827zm40 39.136c4.418 0 8-3.505 8-7.827 0-4.323-3.582-7.828-8-7.828s-8 3.505-8 7.828c0 4.322 3.582 7.827 8 7.827zM101 209.377c0-5.404 4.477-9.784 10-9.784s10 4.38 10 9.784c0 5.403-4.477 9.783-10 9.783 0 5.404-4.477 9.784-10 9.784s-10-4.38-10-9.784c0-5.403 4.477-9.783 10-9.783zm-40-39.136c0-5.404 4.477-9.784 10-9.784s10 4.38 10 9.784c0 5.403-4.477 9.784-10 9.784 0 5.403-4.477 9.784-10 9.784s-10-4.381-10-9.784c0-5.404 4.477-9.784 10-9.784zm10 7.827c4.418 0 8-3.505 8-7.827 0-4.323-3.582-7.827-8-7.827s-8 3.504-8 7.827c0 4.322 3.582 7.827 8 7.827zm40 39.136c4.418 0 8-3.505 8-7.827 0-4.323-3.582-7.828-8-7.828s-8 3.505-8 7.828c0 4.322 3.582 7.827 8 7.827zM183 209.377c0-5.404 4.477-9.784 10-9.784s10 4.38 10 9.784c0 5.403-4.477 9.783-10 9.783 0 5.404-4.477 9.784-10 9.784s-10-4.38-10-9.784c0-5.403 4.477-9.783 10-9.783zm-40-39.136c0-5.404 4.477-9.784 10-9.784s10 4.38 10 9.784c0 5.403-4.477 9.784-10 9.784 0 5.403-4.477 9.784-10 9.784s-10-4.381-10-9.784c0-5.404 4.477-9.784 10-9.784zm10 7.827c4.418 0 8-3.505 8-7.827 0-4.323-3.582-7.827-8-7.827s-8 3.504-8 7.827c0 4.322 3.582 7.827 8 7.827zm40 39.136c4.418 0 8-3.505 8-7.827 0-4.323-3.582-7.828-8-7.828s-8 3.505-8 7.828c0 4.322 3.582 7.827 8 7.827zM19 289.605c0-5.404 4.477-9.784 10-9.784s10 4.38 10 9.784c0 5.403-4.477 9.784-10 9.784 0 5.403-4.477 9.784-10 9.784s-10-4.381-10-9.784c0-5.404 4.477-9.784 10-9.784zm-40-39.136c0-5.404 4.477-9.784 10-9.784s10 4.38 10 9.784c0 5.404-4.477 9.784-10 9.784 0 5.404-4.477 9.784-10 9.784s-10-4.38-10-9.784c0-5.404 4.477-9.784 10-9.784zm10 7.827c4.418 0 8-3.504 8-7.827s-3.582-7.827-8-7.827-8 3.504-8 7.827 3.582 7.827 8 7.827zm40 39.136c4.418 0 8-3.505 8-7.827 0-4.323-3.582-7.827-8-7.827s-8 3.504-8 7.827c0 4.322 3.582 7.827 8 7.827zM101 289.605c0-5.404 4.477-9.784 10-9.784s10 4.38 10 9.784c0 5.403-4.477 9.784-10 9.784 0 5.403-4.477 9.784-10 9.784s-10-4.381-10-9.784c0-5.404 4.477-9.784 10-9.784zm-40-39.136c0-5.404 4.477-9.784 10-9.784s10 4.38 10 9.784c0 5.404-4.477 9.784-10 9.784 0 5.404-4.477 9.784-10 9.784s-10-4.38-10-9.784c0-5.404 4.477-9.784 10-9.784zm10 7.827c4.418 0 8-3.504 8-7.827s-3.582-7.827-8-7.827-8 3.504-8 7.827 3.582 7.827 8 7.827zm40 39.136c4.418 0 8-3.505 8-7.827 0-4.323-3.582-7.827-8-7.827s-8 3.504-8 7.827c0 4.322 3.582 7.827 8 7.827zM183 289.605c0-5.404 4.477-9.784 10-9.784s10 4.38 10 9.784c0 5.403-4.477 9.784-10 9.784 0 5.403-4.477 9.784-10 9.784s-10-4.381-10-9.784c0-5.404 4.477-9.784 10-9.784zm-40-39.136c0-5.404 4.477-9.784 10-9.784s10 4.38 10 9.784c0 5.404-4.477 9.784-10 9.784 0 5.404-4.477 9.784-10 9.784s-10-4.38-10-9.784c0-5.404 4.477-9.784 10-9.784zm10 7.827c4.418 0 8-3.504 8-7.827s-3.582-7.827-8-7.827-8 3.504-8 7.827 3.582 7.827 8 7.827zm40 39.136c4.418 0 8-3.505 8-7.827 0-4.323-3.582-7.827-8-7.827s-8 3.504-8 7.827c0 4.322 3.582 7.827 8 7.827z"/>
  </g>
  <defs>
    <clipPath id="clip0">
      <path fill="#fff" d="M-31 0h236v317H-31V0z"/>
    </clipPath>
  </defs>
</svg>
