<svg xmlns="http://www.w3.org/2000/svg" width="124" height="25" fill="none" viewBox="0 0 124 25">
  <path fill="#4B4B4B" d="M.392 1.988h4.395V19.43H.392V1.988zM6.53 12.845c0-4.314 2.696-6.888 6.856-6.888s6.856 2.574 6.856 6.888-2.637 6.902-6.856 6.902c-4.219 0-6.856-2.517-6.856-6.902zm9.302 0c0-2.373-.952-3.768-2.446-3.768-1.494 0-2.432 1.438-2.432 3.768s.923 3.738 2.432 3.738 2.447-1.322 2.447-3.724v-.014zm6.065 7.434h4.22c.2.438.54.8.967 1.034.428.233.92.324 1.405.26 1.67 0 2.55-.891 2.55-2.186v-2.415h-.088a4.11 4.11 0 01-1.632 1.78 4.223 4.223 0 01-2.368.578c-3.208 0-5.332-2.401-5.332-6.528 0-4.128 2.022-6.73 5.391-6.73a4.264 4.264 0 012.425.644 4.148 4.148 0 011.618 1.887V6.2h4.395v13.086c0 3.149-2.827 5.105-7.002 5.105-3.883 0-6.3-1.712-6.549-4.099v-.014zm9.156-7.449c0-2.1-.981-3.422-2.534-3.422s-2.505 1.308-2.505 3.422.937 3.308 2.505 3.308c1.567 0 2.534-1.165 2.534-3.293v-.015zm6.05 0c0-4.314 2.696-6.888 6.856-6.888s6.87 2.574 6.87 6.888-2.636 6.903-6.87 6.903c-4.233 0-6.856-2.503-6.856-6.888v-.015zm9.303 0c0-2.372-.953-3.767-2.447-3.767-1.494 0-2.358 1.452-2.358 3.796s.923 3.739 2.417 3.739c1.494 0 2.388-1.337 2.388-3.739v-.029zM52.5 3.066a2.17 2.17 0 01.346-1.233c.237-.368.58-.659.986-.835a2.28 2.28 0 012.456.42c.322.301.544.689.64 1.114.097.426.062.87-.099 1.275a2.208 2.208 0 01-.805 1.006 2.27 2.27 0 01-1.239.396 2.176 2.176 0 01-1.613-.567 2.067 2.067 0 01-.672-1.547v-.029zm0 3.164h4.395v13.2H52.5V6.23zm20.348 6.6c0 4.314-1.949 6.773-5.289 6.773a4.252 4.252 0 01-2.442-.589 4.137 4.137 0 01-1.66-1.855h-.087v6.5h-4.395V6.2h4.395V8.56h.088a4.147 4.147 0 011.627-1.903 4.264 4.264 0 012.445-.642c3.37.058 5.376 2.531 5.376 6.845l-.058-.029zm-4.395 0c0-2.1-.982-3.437-2.52-3.437s-2.52 1.352-2.534 3.437c-.015 2.085.996 3.423 2.534 3.423 1.538 0 2.52-1.309 2.52-3.394v-.029zm11.94-6.902c3.647 0 5.859 1.697 5.961 4.414h-3.999c0-.934-.79-1.524-2.007-1.524-1.216 0-1.758.46-1.758 1.136 0 .676.484.892 1.465 1.093l2.813.561c2.68.56 3.823 1.625 3.823 3.624 0 2.732-2.534 4.486-6.27 4.486-3.735 0-6.182-1.754-6.372-4.443h4.234c.132.978.923 1.553 2.212 1.553 1.289 0 1.875-.417 1.875-1.107s-.41-.834-1.465-1.05l-2.534-.532c-2.623-.532-4-1.898-4-3.912.03-2.588 2.388-4.27 6.021-4.27v-.03zm20.962 13.474h-4.233v-2.46h-.088a3.754 3.754 0 01-1.455 2.049c-.709.5-1.57.746-2.442.698a4.753 4.753 0 01-1.959-.304 4.681 4.681 0 01-1.654-1.075 4.575 4.575 0 01-1.05-1.651 4.508 4.508 0 01-.26-1.93V6.2h4.396v7.535c0 1.568.82 2.402 2.183 2.402.319 0 .635-.066.926-.195.291-.13.551-.318.762-.553a2.163 2.163 0 00.538-1.74V6.2h4.395l-.059 13.2zm2.125-13.2h4.248v2.544h.088a3.823 3.823 0 011.427-2.035 3.943 3.943 0 012.396-.754 3.546 3.546 0 012.44.721 3.424 3.424 0 011.296 2.155h.088a4.055 4.055 0 011.564-2.133 4.186 4.186 0 012.567-.743 4.336 4.336 0 011.747.305c.554.22 1.054.553 1.469.976.414.424.733.928.937 1.48.203.552.285 1.14.242 1.725v8.988h-4.395v-7.837c0-1.438-.659-2.1-1.89-2.1a1.923 1.923 0 00-1.453.635 1.868 1.868 0 00-.466 1.493v7.809h-4.175v-7.895c0-1.323-.659-2.042-1.861-2.042a2 2 0 00-.805.17 1.96 1.96 0 00-.663.479 1.908 1.908 0 00-.48 1.508v7.78h-4.395l.074-13.23z"/>
</svg>
