<svg xmlns="http://www.w3.org/2000/svg" width="40" height="39" fill="none" viewBox="0 0 40 39">
  <path fill="#4B4B4B" d="M38.101 11.779a19.002 19.002 0 00-2.93-4.63 19.761 19.761 0 00-6.482-5.093 20.153 20.153 0 00-16.224-.667 19.847 19.847 0 00-6.894 4.543 19.406 19.406 0 00-4.393 6.916 19.126 19.126 0 001.225 15.894 19.56 19.56 0 005.403 6.189 19.272 19.272 0 004.688 2.631A19.935 19.935 0 0019.922 39c5.258-.011 10.297-2.069 14.012-5.721 3.716-3.653 5.804-8.602 5.808-13.764a18.952 18.952 0 00-1.64-7.736zM19.907 3.97c2.287 0 4.547.49 6.621 1.438a6.524 6.524 0 01-1.582.445 8.453 8.453 0 00-4.733 2.329 8.185 8.185 0 00-2.372 4.646 4.284 4.284 0 01-1.294 2.598 4.43 4.43 0 01-2.676 1.212 8.453 8.453 0 00-4.733 2.329 8.185 8.185 0 00-2.372 4.645 4.15 4.15 0 01-1.157 2.503 15.284 15.284 0 01.936-14.956 15.706 15.706 0 015.743-5.297 16.055 16.055 0 017.634-1.921l-.015.029zM7.792 29.58c.176-.158.351-.302.527-.474a7.828 7.828 0 002.373-4.645 4.168 4.168 0 011.275-2.617 4.178 4.178 0 012.651-1.237 8.453 8.453 0 004.733-2.328 8.185 8.185 0 002.372-4.646 4.164 4.164 0 011.275-2.747 4.24 4.24 0 012.68-1.193 8.091 8.091 0 004.395-2.057 15.19 15.19 0 013.458 3.998c-.056.074-.12.141-.19.201a4.236 4.236 0 01-2.652 1.266 8.424 8.424 0 00-4.738 2.323 8.156 8.156 0 00-2.367 4.651 4.281 4.281 0 01-1.27 2.617 4.43 4.43 0 01-2.67 1.237 8.498 8.498 0 00-4.753 2.324 8.23 8.23 0 00-2.397 4.65 4.464 4.464 0 01-.717 1.97 15.884 15.884 0 01-3.985-3.293zm12.115 5.55a16.154 16.154 0 01-4.395-.603c.489-.895.807-1.87.938-2.876.102-.988.549-1.91 1.264-2.613a4.428 4.428 0 012.662-1.24 8.453 8.453 0 004.741-2.325 8.185 8.185 0 002.378-4.65c.103-.988.55-1.91 1.265-2.613a4.43 4.43 0 012.661-1.241 8.457 8.457 0 003.75-1.438c.618 2.298.691 4.704.214 7.034a15.426 15.426 0 01-2.965 6.407 15.79 15.79 0 01-5.537 4.469 16.094 16.094 0 01-6.976 1.618v.072z"/>
</svg>
