<svg xmlns="http://www.w3.org/2000/svg" fill="none" viewBox="0 0 63 63">
  <path fill="#CBCBCB" d="M30.516 30.516h1.968v4.922h-1.968v-4.922z"/>
  <path fill="#50559F" d="M2.953 18.703h57.094v11.813H2.953V18.703z"/>
  <path fill="#5D62B5" d="M17.719 18.703h42.328v11.813H17.719a5.906 5.906 0 110-11.813z"/>
  <path fill="#50559F" d="M41.344 23.625h1.968v1.969h-1.968v-1.969zM45.281 23.625h1.969v1.969h-1.969v-1.969zM49.219 23.625h1.968v1.969H49.22v-1.969z"/>
  <path fill="#E4E4E2" d="M24.61 17.719V31.5h13.78V17.719H24.61zm9.843 9.843h-5.906v-5.906h5.906v5.907z"/>
  <path fill="#F3AF3E" d="M38.39 39.375a6.89 6.89 0 11-13.78 0 6.89 6.89 0 0113.78 0z"/>
  <path fill="#CBCBCB" d="M34.453 21.656h.984v5.907h-.984v-5.907z"/>
  <path fill="#50559F" d="M23.625 18.703h.984v11.813h-.984V18.703z"/>
</svg>
