<svg xmlns="http://www.w3.org/2000/svg" fill="none" viewBox="0 0 665 591">
  <g filter="url(#filter0_iiii)">
    <path fill="#484C9A" d="M394.626 470.572c-39.962 9.381-50.546-43.05-89.246-42.685-50.636.479-106.501 54.125-153.077 44.974-47.273-9.289-71.234-50.544-80.968-90.961-10.528-43.713-6.713-95.581 24.958-141.597 31.298-45.476 87.232-79.579 142.595-101.853 49.056-19.737 96.351-9.099 146.125-14.307 48.119-5.034 103.335-31.822 141.596-15.797 38.328 16.053 52.272 57.391 52.429 97.063.139 35.088-31.232 70.181-51.627 105.595-15.584 27.059-32.73 52.119-53.753 77.383-24.364 29.279-40.91 73.237-79.032 82.185z"/>
  </g>
  <defs>
    <filter id="filter0_iiii" width="663.364" height="606.152" x=".827" y=".319" color-interpolation-filters="sRGB" filterUnits="userSpaceOnUse">
      <feFlood flood-opacity="0" result="BackgroundImageFix"/>
      <feBlend in="SourceGraphic" in2="BackgroundImageFix" result="shape"/>
      <feColorMatrix in="SourceAlpha" result="hardAlpha" values="0 0 0 0 0 0 0 0 0 0 0 0 0 0 0 0 0 0 127 0"/>
      <feOffset dy="16"/>
      <feGaussianBlur stdDeviation="16"/>
      <feComposite in2="hardAlpha" k2="-1" k3="1" operator="arithmetic"/>
      <feColorMatrix values="0 0 0 0 0 0 0 0 0 0 0 0 0 0 0 0 0 0 0.16 0"/>
      <feBlend in2="shape" result="effect1_innerShadow"/>
      <feColorMatrix in="SourceAlpha" result="hardAlpha" values="0 0 0 0 0 0 0 0 0 0 0 0 0 0 0 0 0 0 127 0"/>
      <feOffset dy="8"/>
      <feGaussianBlur stdDeviation="8"/>
      <feComposite in2="hardAlpha" k2="-1" k3="1" operator="arithmetic"/>
      <feColorMatrix values="0 0 0 0 0 0 0 0 0 0 0 0 0 0 0 0 0 0 0.12 0"/>
      <feBlend in2="effect1_innerShadow" result="effect2_innerShadow"/>
      <feColorMatrix in="SourceAlpha" result="hardAlpha" values="0 0 0 0 0 0 0 0 0 0 0 0 0 0 0 0 0 0 127 0"/>
      <feOffset dy="4"/>
      <feGaussianBlur stdDeviation="4"/>
      <feComposite in2="hardAlpha" k2="-1" k3="1" operator="arithmetic"/>
      <feColorMatrix values="0 0 0 0 0 0 0 0 0 0 0 0 0 0 0 0 0 0 0.12 0"/>
      <feBlend in2="effect2_innerShadow" result="effect3_innerShadow"/>
      <feColorMatrix in="SourceAlpha" result="hardAlpha" values="0 0 0 0 0 0 0 0 0 0 0 0 0 0 0 0 0 0 127 0"/>
      <feOffset dy="2"/>
      <feGaussianBlur stdDeviation="2"/>
      <feComposite in2="hardAlpha" k2="-1" k3="1" operator="arithmetic"/>
      <feColorMatrix values="0 0 0 0 0 0 0 0 0 0 0 0 0 0 0 0 0 0 0.12 0"/>
      <feBlend in2="effect3_innerShadow" result="effect4_innerShadow"/>
    </filter>
  </defs>
</svg>
