<svg xmlns="http://www.w3.org/2000/svg" fill="none" viewBox="0 0 124 26">
  <path fill="#fff" d="M.392 1.551h4.395V19.89H.392V1.55zM6.53 12.965c0-4.535 2.696-7.241 6.856-7.241s6.856 2.706 6.856 7.241-2.637 7.256-6.856 7.256c-4.219 0-6.856-2.645-6.856-7.256zm9.302 0c0-2.494-.952-3.96-2.446-3.96-1.494 0-2.432 1.51-2.432 3.96 0 2.449.923 3.93 2.432 3.93s2.447-1.39 2.447-3.915v-.015zm6.065 7.816h4.22c.2.46.54.841.967 1.086.428.245.92.341 1.405.274 1.67 0 2.55-.937 2.55-2.298v-2.54h-.088a4.25 4.25 0 01-1.632 1.873 4.06 4.06 0 01-2.368.607c-3.208 0-5.332-2.525-5.332-6.863 0-4.34 2.022-7.075 5.391-7.075a4.107 4.107 0 012.425.677 4.307 4.307 0 011.618 1.983V5.981h4.395v13.756c0 3.311-2.827 5.367-7.002 5.367-3.883 0-6.3-1.799-6.549-4.308v-.015zm9.156-7.831c0-2.207-.981-3.598-2.534-3.598s-2.505 1.376-2.505 3.598.937 3.477 2.505 3.477c1.567 0 2.534-1.225 2.534-3.462v-.015zm6.05 0c0-4.535 2.696-7.241 6.856-7.241s6.87 2.706 6.87 7.24c0 4.536-2.636 7.257-6.87 7.257-4.233 0-6.856-2.63-6.856-7.241v-.015zm9.303 0c0-2.494-.953-3.96-2.447-3.96-1.494 0-2.358 1.526-2.358 3.99 0 2.464.923 3.93 2.417 3.93 1.494 0 2.388-1.405 2.388-3.93v-.03zM52.5 2.685a2.37 2.37 0 01.346-1.296c.237-.387.58-.693.986-.878a2.178 2.178 0 011.294-.164c.437.078.842.29 1.163.606.32.316.543.724.64 1.17.096.448.061.914-.1 1.341a2.304 2.304 0 01-.805 1.057 2.195 2.195 0 01-1.239.417c-.294.02-.59-.022-.867-.124a2.128 2.128 0 01-.746-.472 2.209 2.209 0 01-.501-.74 2.27 2.27 0 01-.171-.887v-.03zm0 3.326h4.395v13.878H52.5V6.01zm20.348 6.939c0 4.535-1.949 7.12-5.289 7.12a4.088 4.088 0 01-2.442-.619 4.285 4.285 0 01-1.66-1.95h-.087v6.832h-4.395V5.981h4.395V8.46h.088a4.308 4.308 0 011.627-2.001 4.106 4.106 0 012.445-.675c3.37.06 5.376 2.66 5.376 7.196l-.058-.03zm-4.395 0c0-2.207-.982-3.613-2.52-3.613s-2.52 1.42-2.534 3.613c-.015 2.192.996 3.598 2.534 3.598 1.538 0 2.52-1.376 2.52-3.568v-.03zm11.94-7.256c3.647 0 5.859 1.783 5.961 4.64h-3.999c0-.982-.79-1.602-2.007-1.602-1.216 0-1.758.484-1.758 1.194s.484.938 1.465 1.15l2.813.589c2.68.59 3.823 1.708 3.823 3.81 0 2.872-2.534 4.716-6.27 4.716-3.735 0-6.182-1.844-6.372-4.671h4.234c.132 1.028.923 1.633 2.212 1.633 1.289 0 1.875-.439 1.875-1.165 0-.725-.41-.876-1.465-1.103l-2.534-.56c-2.623-.559-4-1.995-4-4.111.03-2.722 2.388-4.49 6.021-4.49v-.03zm20.962 14.165h-4.233v-2.586h-.088a3.948 3.948 0 01-1.455 2.153 3.739 3.739 0 01-2.442.735 4.541 4.541 0 01-1.959-.32 4.664 4.664 0 01-1.654-1.13 4.848 4.848 0 01-1.05-1.736 4.964 4.964 0 01-.26-2.03V5.981h4.396v7.921c0 1.648.82 2.525 2.183 2.525.319 0 .635-.07.926-.205.291-.136.551-.334.762-.582.21-.247.368-.539.46-.854.093-.315.12-.648.078-.974V5.98h4.395l-.059 13.877zM103.48 5.98h4.248v2.676h.088a4.024 4.024 0 011.427-2.14 3.812 3.812 0 012.396-.793 3.426 3.426 0 012.44.758 3.635 3.635 0 011.296 2.265h.088a4.256 4.256 0 011.564-2.241 4.04 4.04 0 012.567-.782 4.148 4.148 0 011.747.32 4.264 4.264 0 011.469 1.027c.414.445.733.975.937 1.555a4.54 4.54 0 01.242 1.814v9.449h-4.395v-8.24c0-1.511-.659-2.206-1.89-2.206a1.871 1.871 0 00-.797.17 1.93 1.93 0 00-.656.497 1.992 1.992 0 00-.398.733 2.04 2.04 0 00-.068.837v8.209h-4.175v-8.3c0-1.39-.659-2.146-1.861-2.146-.277 0-.551.06-.805.178-.253.118-.479.29-.663.503a2.049 2.049 0 00-.405.74 2.103 2.103 0 00-.075.846v8.179h-4.395l.074-13.908z"/>
</svg>
