<svg xmlns="http://www.w3.org/2000/svg" fill="none" viewBox="0 0 201 317">
  <g fill="#000" fill-rule="evenodd" clip-path="url(#clip0)" clip-rule="evenodd">
    <path d="M50 48.92c0-5.404 4.477-9.784 10-9.784s10 4.38 10 9.784c0 5.403-4.477 9.784-10 9.784 0 5.403-4.477 9.784-10 9.784s-10-4.38-10-9.784c0-5.404 4.477-9.784 10-9.784zM10 9.784C10 4.38 14.477 0 20 0s10 4.38 10 9.784c0 5.404-4.477 9.784-10 9.784 0 5.404-4.477 9.784-10 9.784s-10-4.38-10-9.784c0-5.404 4.477-9.784 10-9.784zm10 7.827c4.418 0 8-3.505 8-7.827 0-4.323-3.582-7.827-8-7.827s-8 3.504-8 7.827c0 4.322 3.582 7.827 8 7.827zm40 39.136c4.418 0 8-3.505 8-7.827 0-4.323-3.582-7.827-8-7.827s-8 3.504-8 7.827c0 4.322 3.582 7.827 8 7.827zM132 48.92c0-5.404 4.477-9.784 10-9.784s10 4.38 10 9.784c0 5.403-4.477 9.784-10 9.784 0 5.403-4.477 9.784-10 9.784s-10-4.38-10-9.784c0-5.404 4.477-9.784 10-9.784zM92 9.784C92 4.38 96.477 0 102 0s10 4.38 10 9.784c0 5.404-4.477 9.784-10 9.784 0 5.404-4.477 9.784-10 9.784s-10-4.38-10-9.784c0-5.404 4.477-9.784 10-9.784zm10 7.827c4.418 0 8-3.505 8-7.827 0-4.323-3.582-7.827-8-7.827s-8 3.504-8 7.827c0 4.322 3.582 7.827 8 7.827zm40 39.136c4.418 0 8-3.505 8-7.827 0-4.323-3.582-7.827-8-7.827s-8 3.504-8 7.827c0 4.322 3.582 7.827 8 7.827zM214 48.92c0-5.404 4.477-9.784 10-9.784s10 4.38 10 9.784c0 5.403-4.477 9.784-10 9.784 0 5.403-4.477 9.784-10 9.784s-10-4.38-10-9.784c0-5.404 4.477-9.784 10-9.784zM174 9.784C174 4.38 178.477 0 184 0s10 4.38 10 9.784c0 5.404-4.477 9.784-10 9.784 0 5.404-4.477 9.784-10 9.784s-10-4.38-10-9.784c0-5.404 4.477-9.784 10-9.784zm10 7.827c4.418 0 8-3.505 8-7.827 0-4.323-3.582-7.827-8-7.827s-8 3.504-8 7.827c0 4.322 3.582 7.827 8 7.827zm40 39.136c4.418 0 8-3.505 8-7.827 0-4.323-3.582-7.827-8-7.827s-8 3.504-8 7.827c0 4.322 3.582 7.827 8 7.827zM50 129.148c0-5.404 4.477-9.784 10-9.784s10 4.38 10 9.784c0 5.404-4.477 9.784-10 9.784 0 5.404-4.477 9.784-10 9.784s-10-4.38-10-9.784c0-5.404 4.477-9.784 10-9.784zM10 90.012c0-5.403 4.477-9.784 10-9.784s10 4.38 10 9.784c0 5.404-4.477 9.784-10 9.784 0 5.404-4.477 9.784-10 9.784S0 105.2 0 99.796c0-5.403 4.477-9.784 10-9.784zm10 7.828c4.418 0 8-3.505 8-7.828 0-4.322-3.582-7.827-8-7.827s-8 3.505-8 7.827c0 4.323 3.582 7.828 8 7.828zm40 39.135c4.418 0 8-3.504 8-7.827 0-4.322-3.582-7.827-8-7.827s-8 3.505-8 7.827c0 4.323 3.582 7.827 8 7.827zM132 129.148c0-5.404 4.477-9.784 10-9.784s10 4.38 10 9.784c0 5.404-4.477 9.784-10 9.784 0 5.404-4.477 9.784-10 9.784s-10-4.38-10-9.784c0-5.404 4.477-9.784 10-9.784zM92 90.012c0-5.403 4.477-9.784 10-9.784s10 4.38 10 9.784c0 5.404-4.477 9.784-10 9.784 0 5.404-4.477 9.784-10 9.784s-10-4.38-10-9.784c0-5.403 4.477-9.784 10-9.784zm10 7.828c4.418 0 8-3.505 8-7.828 0-4.322-3.582-7.827-8-7.827s-8 3.505-8 7.827c0 4.323 3.582 7.828 8 7.828zm40 39.135c4.418 0 8-3.504 8-7.827 0-4.322-3.582-7.827-8-7.827s-8 3.505-8 7.827c0 4.323 3.582 7.827 8 7.827zM214 129.148c0-5.404 4.477-9.784 10-9.784s10 4.38 10 9.784c0 5.404-4.477 9.784-10 9.784 0 5.404-4.477 9.784-10 9.784s-10-4.38-10-9.784c0-5.404 4.477-9.784 10-9.784zm-40-39.136c0-5.403 4.477-9.784 10-9.784s10 4.38 10 9.784c0 5.404-4.477 9.784-10 9.784 0 5.404-4.477 9.784-10 9.784s-10-4.38-10-9.784c0-5.403 4.477-9.784 10-9.784zm10 7.828c4.418 0 8-3.505 8-7.828 0-4.322-3.582-7.827-8-7.827s-8 3.505-8 7.827c0 4.323 3.582 7.828 8 7.828zm40 39.135c4.418 0 8-3.504 8-7.827 0-4.322-3.582-7.827-8-7.827s-8 3.505-8 7.827c0 4.323 3.582 7.827 8 7.827zM50 209.377c0-5.404 4.477-9.784 10-9.784s10 4.38 10 9.784c0 5.403-4.477 9.783-10 9.783 0 5.404-4.477 9.784-10 9.784s-10-4.38-10-9.784c0-5.403 4.477-9.783 10-9.783zm-40-39.136c0-5.404 4.477-9.784 10-9.784s10 4.38 10 9.784c0 5.403-4.477 9.784-10 9.784 0 5.403-4.477 9.784-10 9.784s-10-4.381-10-9.784c0-5.404 4.477-9.784 10-9.784zm10 7.827c4.418 0 8-3.505 8-7.827 0-4.323-3.582-7.827-8-7.827s-8 3.504-8 7.827c0 4.322 3.582 7.827 8 7.827zm40 39.136c4.418 0 8-3.505 8-7.827 0-4.323-3.582-7.828-8-7.828s-8 3.505-8 7.828c0 4.322 3.582 7.827 8 7.827zM132 209.377c0-5.404 4.477-9.784 10-9.784s10 4.38 10 9.784c0 5.403-4.477 9.783-10 9.783 0 5.404-4.477 9.784-10 9.784s-10-4.38-10-9.784c0-5.403 4.477-9.783 10-9.783zm-40-39.136c0-5.404 4.477-9.784 10-9.784s10 4.38 10 9.784c0 5.403-4.477 9.784-10 9.784 0 5.403-4.477 9.784-10 9.784s-10-4.381-10-9.784c0-5.404 4.477-9.784 10-9.784zm10 7.827c4.418 0 8-3.505 8-7.827 0-4.323-3.582-7.827-8-7.827s-8 3.504-8 7.827c0 4.322 3.582 7.827 8 7.827zm40 39.136c4.418 0 8-3.505 8-7.827 0-4.323-3.582-7.828-8-7.828s-8 3.505-8 7.828c0 4.322 3.582 7.827 8 7.827zM214 209.377c0-5.404 4.477-9.784 10-9.784s10 4.38 10 9.784c0 5.403-4.477 9.783-10 9.783 0 5.404-4.477 9.784-10 9.784s-10-4.38-10-9.784c0-5.403 4.477-9.783 10-9.783zm-40-39.136c0-5.404 4.477-9.784 10-9.784s10 4.38 10 9.784c0 5.403-4.477 9.784-10 9.784 0 5.403-4.477 9.784-10 9.784s-10-4.381-10-9.784c0-5.404 4.477-9.784 10-9.784zm10 7.827c4.418 0 8-3.505 8-7.827 0-4.323-3.582-7.827-8-7.827s-8 3.504-8 7.827c0 4.322 3.582 7.827 8 7.827zm40 39.136c4.418 0 8-3.505 8-7.827 0-4.323-3.582-7.828-8-7.828s-8 3.505-8 7.828c0 4.322 3.582 7.827 8 7.827zM50 289.605c0-5.404 4.477-9.784 10-9.784s10 4.38 10 9.784c0 5.404-4.477 9.784-10 9.784 0 5.404-4.477 9.784-10 9.784s-10-4.38-10-9.784c0-5.404 4.477-9.784 10-9.784zm-40-39.136c0-5.404 4.477-9.784 10-9.784s10 4.38 10 9.784c0 5.404-4.477 9.784-10 9.784 0 5.404-4.477 9.784-10 9.784s-10-4.38-10-9.784c0-5.404 4.477-9.784 10-9.784zm10 7.827c4.418 0 8-3.504 8-7.827 0-4.322-3.582-7.827-8-7.827s-8 3.505-8 7.827c0 4.323 3.582 7.827 8 7.827zm40 39.136c4.418 0 8-3.505 8-7.827 0-4.323-3.582-7.827-8-7.827s-8 3.504-8 7.827c0 4.322 3.582 7.827 8 7.827zM132 289.605c0-5.404 4.477-9.784 10-9.784s10 4.38 10 9.784c0 5.404-4.477 9.784-10 9.784 0 5.404-4.477 9.784-10 9.784s-10-4.38-10-9.784c0-5.404 4.477-9.784 10-9.784zm-40-39.136c0-5.404 4.477-9.784 10-9.784s10 4.38 10 9.784c0 5.404-4.477 9.784-10 9.784 0 5.404-4.477 9.784-10 9.784s-10-4.38-10-9.784c0-5.404 4.477-9.784 10-9.784zm10 7.827c4.418 0 8-3.504 8-7.827 0-4.322-3.582-7.827-8-7.827s-8 3.505-8 7.827c0 4.323 3.582 7.827 8 7.827zm40 39.136c4.418 0 8-3.505 8-7.827 0-4.323-3.582-7.827-8-7.827s-8 3.504-8 7.827c0 4.322 3.582 7.827 8 7.827zM214 289.605c0-5.404 4.477-9.784 10-9.784s10 4.38 10 9.784c0 5.404-4.477 9.784-10 9.784 0 5.404-4.477 9.784-10 9.784s-10-4.38-10-9.784c0-5.404 4.477-9.784 10-9.784zm-40-39.136c0-5.404 4.477-9.784 10-9.784s10 4.38 10 9.784c0 5.404-4.477 9.784-10 9.784 0 5.404-4.477 9.784-10 9.784s-10-4.38-10-9.784c0-5.404 4.477-9.784 10-9.784zm10 7.827c4.418 0 8-3.504 8-7.827 0-4.322-3.582-7.827-8-7.827s-8 3.505-8 7.827c0 4.323 3.582 7.827 8 7.827zm40 39.136c4.418 0 8-3.505 8-7.827 0-4.323-3.582-7.827-8-7.827s-8 3.504-8 7.827c0 4.322 3.582 7.827 8 7.827z"/>
  </g>
  <defs>
    <clipPath id="clip0">
      <path fill="#fff" d="M0 0h201v317H0V0z"/>
    </clipPath>
  </defs>
</svg>
