<svg xmlns="http://www.w3.org/2000/svg" width="335" height="567" fill="none" viewBox="0 0 335 567">
  <g fill="#000" fill-rule="evenodd" clip-path="url(#clip0)" clip-rule="evenodd">
    <path d="M51.697 516.997c-5.711 0-10.34-4.477-10.34-10s4.629-10 10.34-10c5.71 0 10.34 4.477 10.34 10 5.71 0 10.339 4.477 10.339 10s-4.63 10-10.34 10-10.34-4.477-10.34-10zm-41.358 40c-5.711 0-10.34-4.477-10.34-10s4.629-10 10.34-10c5.71 0 10.339 4.477 10.339 10 5.71 0 10.34 4.477 10.34 10s-4.63 10-10.34 10-10.34-4.477-10.34-10zm8.271-10c0-4.418-3.704-8-8.271-8-4.568 0-8.272 3.582-8.272 8s3.704 8 8.271 8c4.569 0 8.272-3.582 8.272-8zm41.358-40c0-4.418-3.703-8-8.271-8-4.568 0-8.272 3.582-8.272 8s3.704 8 8.272 8 8.271-3.582 8.271-8zM51.697 434.997c-5.711 0-10.34-4.477-10.34-10s4.629-10 10.34-10c5.71 0 10.34 4.477 10.34 10 5.71 0 10.339 4.477 10.339 10s-4.63 10-10.34 10-10.34-4.477-10.34-10zm-41.358 40c-5.711 0-10.34-4.477-10.34-10s4.629-10 10.34-10c5.71 0 10.339 4.477 10.339 10 5.71 0 10.34 4.477 10.34 10s-4.63 10-10.34 10-10.34-4.477-10.34-10zm8.271-10c0-4.418-3.704-8-8.271-8-4.568 0-8.272 3.582-8.272 8s3.704 8 8.271 8c4.569 0 8.272-3.582 8.272-8zm41.358-40c0-4.418-3.703-8-8.271-8-4.568 0-8.272 3.582-8.272 8s3.704 8 8.272 8 8.271-3.582 8.271-8zM51.697 352.997c-5.711 0-10.34-4.477-10.34-10s4.629-10 10.34-10c5.71 0 10.34 4.477 10.34 10 5.71 0 10.339 4.477 10.339 10s-4.63 10-10.34 10-10.34-4.477-10.34-10zm-41.358 40c-5.711 0-10.34-4.477-10.34-10s4.629-10 10.34-10c5.71 0 10.339 4.477 10.339 10 5.71 0 10.34 4.477 10.34 10s-4.63 10-10.34 10-10.34-4.477-10.34-10zm8.271-10c0-4.418-3.704-8-8.271-8-4.568 0-8.272 3.582-8.272 8s3.704 8 8.271 8c4.569 0 8.272-3.582 8.272-8zm41.358-40c0-4.418-3.703-8-8.271-8-4.568 0-8.272 3.582-8.272 8s3.704 8 8.272 8 8.271-3.582 8.271-8zM51.697 270.997c-5.711 0-10.34-4.477-10.34-10s4.629-10 10.34-10c5.71 0 10.34 4.477 10.34 10 5.71 0 10.339 4.477 10.339 10s-4.63 10-10.34 10-10.34-4.477-10.34-10zm-41.358 40c-5.711 0-10.34-4.477-10.34-10s4.629-10 10.34-10c5.71 0 10.339 4.477 10.339 10 5.71 0 10.34 4.477 10.34 10s-4.63 10-10.34 10-10.34-4.477-10.34-10zm8.271-10c0-4.418-3.704-8-8.271-8-4.568 0-8.272 3.582-8.272 8s3.704 8 8.271 8c4.569 0 8.272-3.582 8.272-8zm41.358-40c0-4.418-3.703-8-8.271-8-4.568 0-8.272 3.582-8.272 8s3.704 8 8.272 8 8.271-3.582 8.271-8zM51.697 188.997c-5.711 0-10.34-4.477-10.34-10s4.629-10 10.34-10c5.71 0 10.34 4.477 10.34 10 5.71 0 10.339 4.477 10.339 10s-4.63 10-10.34 10-10.34-4.477-10.34-10zm-41.358 40c-5.711 0-10.34-4.477-10.34-10s4.629-10 10.34-10c5.71 0 10.339 4.477 10.339 10 5.71 0 10.34 4.477 10.34 10s-4.63 10-10.34 10-10.34-4.477-10.34-10zm8.271-10c0-4.418-3.704-8-8.271-8-4.568 0-8.272 3.582-8.272 8s3.704 8 8.271 8c4.569 0 8.272-3.582 8.272-8zm41.358-40c0-4.418-3.703-8-8.271-8-4.568 0-8.272 3.582-8.272 8s3.704 8 8.272 8 8.271-3.582 8.271-8zM51.697 106.997c-5.711 0-10.34-4.477-10.34-10s4.629-10 10.34-10c5.71 0 10.34 4.477 10.34 10 5.71 0 10.339 4.477 10.339 10s-4.63 10-10.34 10-10.34-4.477-10.34-10zm-41.358 40c-5.711 0-10.34-4.477-10.34-10s4.629-10 10.34-10c5.71 0 10.339 4.477 10.339 10 5.71 0 10.34 4.477 10.34 10s-4.63 10-10.34 10-10.34-4.477-10.34-10zm8.271-10c0-4.418-3.704-8-8.271-8-4.568 0-8.272 3.582-8.272 8s3.704 8 8.271 8c4.569 0 8.272-3.582 8.272-8zm41.358-40c0-4.418-3.703-8-8.271-8-4.568 0-8.272 3.582-8.272 8s3.704 8 8.272 8 8.271-3.582 8.271-8zM136.481 516.997c-5.711 0-10.34-4.477-10.34-10s4.629-10 10.34-10c5.71 0 10.339 4.477 10.339 10 5.711 0 10.34 4.477 10.34 10s-4.629 10-10.34 10c-5.71 0-10.339-4.477-10.339-10zm-41.358 40c-5.71 0-10.34-4.477-10.34-10s4.63-10 10.34-10 10.339 4.477 10.339 10c5.711 0 10.34 4.477 10.34 10s-4.629 10-10.34 10c-5.71 0-10.34-4.477-10.34-10zm8.271-10c0-4.418-3.703-8-8.271-8-4.568 0-8.272 3.582-8.272 8s3.704 8 8.272 8 8.271-3.582 8.271-8zm41.358-40c0-4.418-3.703-8-8.271-8-4.568 0-8.272 3.582-8.272 8s3.704 8 8.272 8 8.271-3.582 8.271-8zM136.481 434.997c-5.711 0-10.34-4.477-10.34-10s4.629-10 10.34-10c5.71 0 10.339 4.477 10.339 10 5.711 0 10.34 4.477 10.34 10s-4.629 10-10.34 10c-5.71 0-10.339-4.477-10.339-10zm-41.358 40c-5.71 0-10.34-4.477-10.34-10s4.63-10 10.34-10 10.339 4.477 10.339 10c5.711 0 10.34 4.477 10.34 10s-4.629 10-10.34 10c-5.71 0-10.34-4.477-10.34-10zm8.271-10c0-4.418-3.703-8-8.271-8-4.568 0-8.272 3.582-8.272 8s3.704 8 8.272 8 8.271-3.582 8.271-8zm41.358-40c0-4.418-3.703-8-8.271-8-4.568 0-8.272 3.582-8.272 8s3.704 8 8.272 8 8.271-3.582 8.271-8zM136.481 352.997c-5.711 0-10.34-4.477-10.34-10s4.629-10 10.34-10c5.71 0 10.339 4.477 10.339 10 5.711 0 10.34 4.477 10.34 10s-4.629 10-10.34 10c-5.71 0-10.339-4.477-10.339-10zm-41.358 40c-5.71 0-10.34-4.477-10.34-10s4.63-10 10.34-10 10.339 4.477 10.339 10c5.711 0 10.34 4.477 10.34 10s-4.629 10-10.34 10c-5.71 0-10.34-4.477-10.34-10zm8.271-10c0-4.418-3.703-8-8.271-8-4.568 0-8.272 3.582-8.272 8s3.704 8 8.272 8 8.271-3.582 8.271-8zm41.358-40c0-4.418-3.703-8-8.271-8-4.568 0-8.272 3.582-8.272 8s3.704 8 8.272 8 8.271-3.582 8.271-8zM136.481 270.997c-5.711 0-10.34-4.477-10.34-10s4.629-10 10.34-10c5.71 0 10.339 4.477 10.339 10 5.711 0 10.34 4.477 10.34 10s-4.629 10-10.34 10c-5.71 0-10.339-4.477-10.339-10zm-41.358 40c-5.71 0-10.34-4.477-10.34-10s4.63-10 10.34-10 10.339 4.477 10.339 10c5.711 0 10.34 4.477 10.34 10s-4.629 10-10.34 10c-5.71 0-10.34-4.477-10.34-10zm8.271-10c0-4.418-3.703-8-8.271-8-4.568 0-8.272 3.582-8.272 8s3.704 8 8.272 8 8.271-3.582 8.271-8zm41.358-40c0-4.418-3.703-8-8.271-8-4.568 0-8.272 3.582-8.272 8s3.704 8 8.272 8 8.271-3.582 8.271-8zM136.481 188.997c-5.711 0-10.34-4.477-10.34-10s4.629-10 10.34-10c5.71 0 10.339 4.477 10.339 10 5.711 0 10.34 4.477 10.34 10s-4.629 10-10.34 10c-5.71 0-10.339-4.477-10.339-10zm-41.358 40c-5.71 0-10.34-4.477-10.34-10s4.63-10 10.34-10 10.339 4.477 10.339 10c5.711 0 10.34 4.477 10.34 10s-4.629 10-10.34 10c-5.71 0-10.34-4.477-10.34-10zm8.271-10c0-4.418-3.703-8-8.271-8-4.568 0-8.272 3.582-8.272 8s3.704 8 8.272 8 8.271-3.582 8.271-8zm41.358-40c0-4.418-3.703-8-8.271-8-4.568 0-8.272 3.582-8.272 8s3.704 8 8.272 8 8.271-3.582 8.271-8zM136.481 106.997c-5.711 0-10.34-4.477-10.34-10s4.629-10 10.34-10c5.71 0 10.339 4.477 10.339 10 5.711 0 10.34 4.477 10.34 10s-4.629 10-10.34 10c-5.71 0-10.339-4.477-10.339-10zm-41.358 40c-5.71 0-10.34-4.477-10.34-10s4.63-10 10.34-10 10.339 4.477 10.339 10c5.711 0 10.34 4.477 10.34 10s-4.629 10-10.34 10c-5.71 0-10.34-4.477-10.34-10zm8.271-10c0-4.418-3.703-8-8.271-8-4.568 0-8.272 3.582-8.272 8s3.704 8 8.272 8 8.271-3.582 8.271-8zm41.358-40c0-4.418-3.703-8-8.271-8-4.568 0-8.272 3.582-8.272 8s3.704 8 8.272 8 8.271-3.582 8.271-8zM221.264 516.997c-5.71 0-10.339-4.477-10.339-10s4.629-10 10.339-10c5.711 0 10.34 4.477 10.34 10 5.71 0 10.339 4.477 10.339 10s-4.629 10-10.339 10c-5.711 0-10.34-4.477-10.34-10zm-41.358 40c-5.71 0-10.339-4.477-10.339-10s4.629-10 10.339-10c5.711 0 10.34 4.477 10.34 10 5.71 0 10.339 4.477 10.339 10s-4.629 10-10.339 10c-5.711 0-10.34-4.477-10.34-10zm8.272-10c0-4.418-3.704-8-8.272-8s-8.271 3.582-8.271 8 3.703 8 8.271 8c4.568 0 8.272-3.582 8.272-8zm41.358-40c0-4.418-3.704-8-8.272-8s-8.271 3.582-8.271 8 3.703 8 8.271 8c4.568 0 8.272-3.582 8.272-8zM221.264 434.997c-5.71 0-10.339-4.477-10.339-10s4.629-10 10.339-10c5.711 0 10.34 4.477 10.34 10 5.71 0 10.339 4.477 10.339 10s-4.629 10-10.339 10c-5.711 0-10.34-4.477-10.34-10zm-41.358 40c-5.71 0-10.339-4.477-10.339-10s4.629-10 10.339-10c5.711 0 10.34 4.477 10.34 10 5.71 0 10.339 4.477 10.339 10s-4.629 10-10.339 10c-5.711 0-10.34-4.477-10.34-10zm8.272-10c0-4.418-3.704-8-8.272-8s-8.271 3.582-8.271 8 3.703 8 8.271 8c4.568 0 8.272-3.582 8.272-8zm41.358-40c0-4.418-3.704-8-8.272-8s-8.271 3.582-8.271 8 3.703 8 8.271 8c4.568 0 8.272-3.582 8.272-8zM221.264 352.997c-5.71 0-10.339-4.477-10.339-10s4.629-10 10.339-10c5.711 0 10.34 4.477 10.34 10 5.71 0 10.339 4.477 10.339 10s-4.629 10-10.339 10c-5.711 0-10.34-4.477-10.34-10zm-41.358 40c-5.71 0-10.339-4.477-10.339-10s4.629-10 10.339-10c5.711 0 10.34 4.477 10.34 10 5.71 0 10.339 4.477 10.339 10s-4.629 10-10.339 10c-5.711 0-10.34-4.477-10.34-10zm8.272-10c0-4.418-3.704-8-8.272-8s-8.271 3.582-8.271 8 3.703 8 8.271 8c4.568 0 8.272-3.582 8.272-8zm41.358-40c0-4.418-3.704-8-8.272-8s-8.271 3.582-8.271 8 3.703 8 8.271 8c4.568 0 8.272-3.582 8.272-8zM221.264 270.997c-5.71 0-10.339-4.477-10.339-10s4.629-10 10.339-10c5.711 0 10.34 4.477 10.34 10 5.71 0 10.339 4.477 10.339 10s-4.629 10-10.339 10c-5.711 0-10.34-4.477-10.34-10zm-41.358 40c-5.71 0-10.339-4.477-10.339-10s4.629-10 10.339-10c5.711 0 10.34 4.477 10.34 10 5.71 0 10.339 4.477 10.339 10s-4.629 10-10.339 10c-5.711 0-10.34-4.477-10.34-10zm8.272-10c0-4.418-3.704-8-8.272-8s-8.271 3.582-8.271 8 3.703 8 8.271 8c4.568 0 8.272-3.582 8.272-8zm41.358-40c0-4.418-3.704-8-8.272-8s-8.271 3.582-8.271 8 3.703 8 8.271 8c4.568 0 8.272-3.582 8.272-8zM221.264 188.997c-5.71 0-10.339-4.477-10.339-10s4.629-10 10.339-10c5.711 0 10.34 4.477 10.34 10 5.71 0 10.339 4.477 10.339 10s-4.629 10-10.339 10c-5.711 0-10.34-4.477-10.34-10zm-41.358 40c-5.71 0-10.339-4.477-10.339-10s4.629-10 10.339-10c5.711 0 10.34 4.477 10.34 10 5.71 0 10.339 4.477 10.339 10s-4.629 10-10.339 10c-5.711 0-10.34-4.477-10.34-10zm8.272-10c0-4.418-3.704-8-8.272-8s-8.271 3.582-8.271 8 3.703 8 8.271 8c4.568 0 8.272-3.582 8.272-8zm41.358-40c0-4.418-3.704-8-8.272-8s-8.271 3.582-8.271 8 3.703 8 8.271 8c4.568 0 8.272-3.582 8.272-8zM221.264 106.997c-5.71 0-10.339-4.477-10.339-10s4.629-10 10.339-10c5.711 0 10.34 4.477 10.34 10 5.71 0 10.339 4.477 10.339 10s-4.629 10-10.339 10c-5.711 0-10.34-4.477-10.34-10zm-41.358 40c-5.71 0-10.339-4.477-10.339-10s4.629-10 10.339-10c5.711 0 10.34 4.477 10.34 10 5.71 0 10.339 4.477 10.339 10s-4.629 10-10.339 10c-5.711 0-10.34-4.477-10.34-10zm8.272-10c0-4.418-3.704-8-8.272-8s-8.271 3.582-8.271 8 3.703 8 8.271 8c4.568 0 8.272-3.582 8.272-8zm41.358-40c0-4.418-3.704-8-8.272-8s-8.271 3.582-8.271 8 3.703 8 8.271 8c4.568 0 8.272-3.582 8.272-8zM306.049 516.997c-5.711 0-10.34-4.477-10.34-10s4.629-10 10.34-10c5.71 0 10.339 4.477 10.339 10 5.711 0 10.34 4.477 10.34 10s-4.629 10-10.34 10c-5.71 0-10.339-4.477-10.339-10zm-41.358 40c-5.711 0-10.34-4.477-10.34-10s4.629-10 10.34-10c5.71 0 10.339 4.477 10.339 10 5.711 0 10.34 4.477 10.34 10s-4.629 10-10.34 10c-5.71 0-10.339-4.477-10.339-10zm8.271-10c0-4.418-3.703-8-8.271-8-4.568 0-8.272 3.582-8.272 8s3.704 8 8.272 8 8.271-3.582 8.271-8zm41.358-40c0-4.418-3.703-8-8.271-8-4.568 0-8.272 3.582-8.272 8s3.704 8 8.272 8 8.271-3.582 8.271-8zM306.049 434.997c-5.711 0-10.34-4.477-10.34-10s4.629-10 10.34-10c5.71 0 10.339 4.477 10.339 10 5.711 0 10.34 4.477 10.34 10s-4.629 10-10.34 10c-5.71 0-10.339-4.477-10.339-10zm-41.358 40c-5.711 0-10.34-4.477-10.34-10s4.629-10 10.34-10c5.71 0 10.339 4.477 10.339 10 5.711 0 10.34 4.477 10.34 10s-4.629 10-10.34 10c-5.71 0-10.339-4.477-10.339-10zm8.271-10c0-4.418-3.703-8-8.271-8-4.568 0-8.272 3.582-8.272 8s3.704 8 8.272 8 8.271-3.582 8.271-8zm41.358-40c0-4.418-3.703-8-8.271-8-4.568 0-8.272 3.582-8.272 8s3.704 8 8.272 8 8.271-3.582 8.271-8zM306.049 352.997c-5.711 0-10.34-4.477-10.34-10s4.629-10 10.34-10c5.71 0 10.339 4.477 10.339 10 5.711 0 10.34 4.477 10.34 10s-4.629 10-10.34 10c-5.71 0-10.339-4.477-10.339-10zm-41.358 40c-5.711 0-10.34-4.477-10.34-10s4.629-10 10.34-10c5.71 0 10.339 4.477 10.339 10 5.711 0 10.34 4.477 10.34 10s-4.629 10-10.34 10c-5.71 0-10.339-4.477-10.339-10zm8.271-10c0-4.418-3.703-8-8.271-8-4.568 0-8.272 3.582-8.272 8s3.704 8 8.272 8 8.271-3.582 8.271-8zm41.358-40c0-4.418-3.703-8-8.271-8-4.568 0-8.272 3.582-8.272 8s3.704 8 8.272 8 8.271-3.582 8.271-8zM306.049 270.997c-5.711 0-10.34-4.477-10.34-10s4.629-10 10.34-10c5.71 0 10.339 4.477 10.339 10 5.711 0 10.34 4.477 10.34 10s-4.629 10-10.34 10c-5.71 0-10.339-4.477-10.339-10zm-41.358 40c-5.711 0-10.34-4.477-10.34-10s4.629-10 10.34-10c5.71 0 10.339 4.477 10.339 10 5.711 0 10.34 4.477 10.34 10s-4.629 10-10.34 10c-5.71 0-10.339-4.477-10.339-10zm8.271-10c0-4.418-3.703-8-8.271-8-4.568 0-8.272 3.582-8.272 8s3.704 8 8.272 8 8.271-3.582 8.271-8zm41.358-40c0-4.418-3.703-8-8.271-8-4.568 0-8.272 3.582-8.272 8s3.704 8 8.272 8 8.271-3.582 8.271-8zM306.049 188.997c-5.711 0-10.34-4.477-10.34-10s4.629-10 10.34-10c5.71 0 10.339 4.477 10.339 10 5.711 0 10.34 4.477 10.34 10s-4.629 10-10.34 10c-5.71 0-10.339-4.477-10.339-10zm-41.358 40c-5.711 0-10.34-4.477-10.34-10s4.629-10 10.34-10c5.71 0 10.339 4.477 10.339 10 5.711 0 10.34 4.477 10.34 10s-4.629 10-10.34 10c-5.71 0-10.339-4.477-10.339-10zm8.271-10c0-4.418-3.703-8-8.271-8-4.568 0-8.272 3.582-8.272 8s3.704 8 8.272 8 8.271-3.582 8.271-8zm41.358-40c0-4.418-3.703-8-8.271-8-4.568 0-8.272 3.582-8.272 8s3.704 8 8.272 8 8.271-3.582 8.271-8zM306.049 106.997c-5.711 0-10.34-4.477-10.34-10s4.629-10 10.34-10c5.71 0 10.339 4.477 10.339 10 5.711 0 10.34 4.477 10.34 10s-4.629 10-10.34 10c-5.71 0-10.339-4.477-10.339-10zm-41.358 40c-5.711 0-10.34-4.477-10.34-10s4.629-10 10.34-10c5.71 0 10.339 4.477 10.339 10 5.711 0 10.34 4.477 10.34 10s-4.629 10-10.34 10c-5.71 0-10.339-4.477-10.339-10zm8.271-10c0-4.418-3.703-8-8.271-8-4.568 0-8.272 3.582-8.272 8s3.704 8 8.272 8 8.271-3.582 8.271-8zm41.358-40c0-4.418-3.703-8-8.271-8-4.568 0-8.272 3.582-8.272 8s3.704 8 8.272 8 8.271-3.582 8.271-8zM51.697 24.997c-5.711 0-10.34-4.477-10.34-10s4.629-10 10.34-10c5.71 0 10.34 4.477 10.34 10 5.71 0 10.339 4.477 10.339 10s-4.63 10-10.34 10-10.34-4.477-10.34-10zm-41.358 40c-5.711 0-10.34-4.477-10.34-10s4.629-10 10.34-10c5.71 0 10.339 4.477 10.339 10 5.71 0 10.34 4.477 10.34 10s-4.63 10-10.34 10-10.34-4.477-10.34-10zm8.271-10c0-4.418-3.704-8-8.271-8-4.568 0-8.272 3.582-8.272 8s3.704 8 8.271 8c4.569 0 8.272-3.582 8.272-8zm41.358-40c0-4.418-3.703-8-8.271-8-4.568 0-8.272 3.582-8.272 8s3.704 8 8.272 8 8.271-3.582 8.271-8zM136.481 24.997c-5.711 0-10.34-4.477-10.34-10s4.629-10 10.34-10c5.71 0 10.339 4.477 10.339 10 5.711 0 10.34 4.477 10.34 10s-4.629 10-10.34 10c-5.71 0-10.339-4.477-10.339-10zm-41.358 40c-5.71 0-10.34-4.477-10.34-10s4.63-10 10.34-10 10.339 4.477 10.339 10c5.711 0 10.34 4.477 10.34 10s-4.629 10-10.34 10c-5.71 0-10.34-4.477-10.34-10zm8.271-10c0-4.418-3.703-8-8.271-8-4.568 0-8.272 3.582-8.272 8s3.704 8 8.272 8 8.271-3.582 8.271-8zm41.358-40c0-4.418-3.703-8-8.271-8-4.568 0-8.272 3.582-8.272 8s3.704 8 8.272 8 8.271-3.582 8.271-8zM221.264 24.997c-5.71 0-10.339-4.477-10.339-10s4.629-10 10.339-10c5.711 0 10.34 4.477 10.34 10 5.71 0 10.339 4.477 10.339 10s-4.629 10-10.339 10c-5.711 0-10.34-4.477-10.34-10zm-41.358 40c-5.71 0-10.339-4.477-10.339-10s4.629-10 10.339-10c5.711 0 10.34 4.477 10.34 10 5.71 0 10.339 4.477 10.339 10s-4.629 10-10.339 10c-5.711 0-10.34-4.477-10.34-10zm8.272-10c0-4.418-3.704-8-8.272-8s-8.271 3.582-8.271 8 3.703 8 8.271 8c4.568 0 8.272-3.582 8.272-8zm41.358-40c0-4.418-3.704-8-8.272-8s-8.271 3.582-8.271 8 3.703 8 8.271 8c4.568 0 8.272-3.582 8.272-8zM306.049 24.997c-5.711 0-10.34-4.477-10.34-10s4.629-10 10.34-10c5.71 0 10.339 4.477 10.339 10 5.711 0 10.34 4.477 10.34 10s-4.629 10-10.34 10c-5.71 0-10.339-4.477-10.339-10zm-41.358 40c-5.711 0-10.34-4.477-10.34-10s4.629-10 10.34-10c5.71 0 10.339 4.477 10.339 10 5.711 0 10.34 4.477 10.34 10s-4.629 10-10.34 10c-5.71 0-10.339-4.477-10.339-10zm8.271-10c0-4.418-3.703-8-8.271-8-4.568 0-8.272 3.582-8.272 8s3.704 8 8.272 8 8.271-3.582 8.271-8zm41.358-40c0-4.418-3.703-8-8.271-8-4.568 0-8.272 3.582-8.272 8s3.704 8 8.272 8 8.271-3.582 8.271-8z"/>
  </g>
  <defs>
    <clipPath id="clip0">
      <path fill="#fff" d="M-.001 566.997v-566h335v566h-335z"/>
    </clipPath>
  </defs>
</svg>
