<svg xmlns="http://www.w3.org/2000/svg" width="16" height="16" fill="none" viewBox="0 0 16 16">
  <path fill="#F2726F" fill-rule="evenodd" d="M6.668 1h2.666c.367 0 .667.3.667.667 0 .366-.3.666-.667.666H6.668A.669.669 0 016 1.667c0-.367.3-.667.667-.667zm2 8c0 .367-.3.667-.667.667A.669.669 0 017.334 9V6.333c0-.366.3-.666.667-.666.367 0 .667.3.667.666V9zm4.02-3.74l.5-.5a.662.662 0 000-.933l-.007-.007a.662.662 0 00-.933 0l-.5.5A5.974 5.974 0 008 3c-3.2 0-5.92 2.64-6 5.84a5.999 5.999 0 006 6.16 5.996 5.996 0 004.687-9.74zM3.334 9a4.663 4.663 0 004.667 4.667A4.663 4.663 0 0012.668 9 4.663 4.663 0 008 4.333 4.663 4.663 0 003.334 9z" clip-rule="evenodd"/>
</svg>
